#!OML:ASF H:\Terrain\Patient Classification 1\Terrain2\Thursday\justin.ASF
:FULLY-SPECIFIED
:DEGREES
3632
root 2.80468 21.2265 -0.550434 262.292 -279.843 -809.874
lowerback 6.14117 0.973811 5.81432
upperback 4.16099 1.79553 4.5343
thorax 0.887683 1.05407 1.3305
lowerneck -9.35059 -4.04342 -9.24559
upperneck 42.4635 -2.916 4.68887
head 17.4739 -1.22828 3.61459
rclavicle 2.42269e-015 1.23246e-014
rhumerus -36.7323 -14.4224 -72.7002
rradius 35.8268
rwrist -12.4295
rhand -25.0513 12.6354
rfingers 7.12502
rthumb 1.46207 -17.3393
lclavicle 2.42269e-015 1.23246e-014
lhumerus -41.4162 21.6923 68.2096
lradius 24.3669
lwrist 1.15576
lhand -27.7267 17.6926
lfingers 7.12502
lthumb -1.12194 47.6694
rfemur 2.68375 -10.2801 30.0507
rtibia 64.1963
rfoot -38.2422 -4.79075
rtoes -22.8129
lfemur -17.2372 0.198245 -10.3418
ltibia 19.056
lfoot 31.9553 -1.25601
ltoes 13.6934
3633
root 2.93492 21.1164 -0.559887 262.137 -279.778 -809.861
lowerback 5.86431 0.968373 5.73621
upperback 4.12614 1.75685 4.51772
thorax 1.00266 1.03305 1.36476
lowerneck -9.07958 -4.02409 -9.21514
upperneck 42.5542 -2.90981 4.73446
head 17.4554 -1.20799 3.63811
rclavicle 1.4151e-014 3.51849e-014
rhumerus -37.0734 -14.527 -72.5162
rradius 35.7709
rwrist -12.4449
rhand -25.2378 12.7859
rfingers 7.12502
rthumb 1.2819 -17.19
lclavicle 1.4151e-014 3.51849e-014
lhumerus -41.6245 21.3169 68.1529
lradius 24.3681
lwrist 2.18413
lhand -28.498 17.969
lfingers 7.12502
lthumb -1.8669 47.9406
rfemur 2.87396 -10.395 29.7132
rtibia 65.5528
rfoot -38.5519 -4.65721
rtoes -23.0304
lfemur -16.39 0.0597959 -10.4153
ltibia 18.4423
lfoot 32.4798 -1.04096
ltoes 12.9004
3634
root 3.06135 21.0082 -0.567694 261.919 -279.773 -809.995
lowerback 5.54239 0.858681 5.57067
upperback 4.09454 1.57403 4.5761
thorax 1.13915 0.93854 1.53225
lowerneck -8.97306 -3.91632 -9.14095
upperneck 42.7018 -2.71503 4.64884
head 17.4886 -1.12362 3.62614
rclavicle -5.71506e-015 -3.16068e-014
rhumerus -37.1836 -14.3293 -72.4651
rradius 35.5518
rwrist -12.6693
rhand -25.3427 12.8874
rfingers 7.12502
rthumb 1.18056 -17.0891
lclavicle -5.71506e-015 -3.16068e-014
lhumerus -42.1945 21.7478 67.491
lradius 24.4953
lwrist 2.50084
lhand -28.1406 18.2651
lfingers 7.12502
lthumb -1.52168 48.2394
rfemur 2.94747 -10.4588 29.4409
rtibia 66.9633
rfoot -38.6292 -4.23429
rtoes -23.3083
lfemur -15.6082 -0.24075 -10.3627
ltibia 17.7796
lfoot 32.8585 -0.186327
ltoes 13.6309
3635
root 3.18864 20.9029 -0.57532 261.911 -279.914 -810.05
lowerback 5.11186 0.806953 5.54792
upperback 4.03814 1.46761 4.67484
thorax 1.3161 0.885349 1.66002
lowerneck -9.08125 -3.8674 -9.18131
upperneck 42.9771 -2.60437 4.69676
head 17.6719 -1.07521 3.69342
rclavicle 3.23149e-014 6.55989e-014
rhumerus -37.2553 -14.2854 -72.3207
rradius 35.1359
rwrist -12.8311
rhand -25.3793 13.1873
rfingers 7.12502
rthumb 1.14521 -16.7894
lclavicle 3.23149e-014 6.55989e-014
lhumerus -42.6794 22.2968 66.7723
lradius 24.5682
lwrist 2.2662
lhand -27.2781 18.8475
lfingers 7.12502
lthumb -0.688665 48.8261
rfemur 2.79634 -10.6762 29.2836
rtibia 68.4748
rfoot -38.5977 -3.81832
rtoes -23.8081
lfemur -14.9637 -0.450095 -10.1361
ltibia 17.1409
lfoot 33.2132 0.940676
ltoes 15.6079
3636
root 3.3144 20.7863 -0.585048 262.511 -280.237 -809.419
lowerback 4.88434 0.88064 5.84034
upperback 3.9286 1.56327 4.76958
thorax 1.33708 0.937626 1.59555
lowerneck -9.08666 -3.94419 -9.27405
upperneck 43.2394 -2.71133 4.83155
head 17.8514 -1.10998 3.77593
rclavicle -1.48343e-014 5.56597e-015
rhumerus -37.5674 -14.6824 -71.9776
rradius 34.7824
rwrist -12.7615
rhand -25.3622 13.3859
rfingers 7.12502
rthumb 1.16178 -16.5907
lclavicle -1.48343e-014 5.56597e-015
lhumerus -43.0459 22.5321 66.2149
lradius 24.6588
lwrist 1.51586
lhand -26.1696 19.7843
lfingers 7.12502
lthumb 0.38197 49.7637
rfemur 2.67268 -10.7678 29.3733
rtibia 70.0641
rfoot -38.5391 -3.32753
rtoes -24.1933
lfemur -14.2826 -0.553501 -9.70187
ltibia 16.6173
lfoot 33.523 1.7535
ltoes 16.5365
